<mxfile host="65bd71144e">
    <diagram id="7rbMcumh-cOKgHumeQxC" name="Page-1">
        <mxGraphModel dx="2305" dy="1036" grid="0" gridSize="10" guides="1" tooltips="1" connect="1" arrows="1" fold="1" page="1" pageScale="1" pageWidth="850" pageHeight="1100" math="0" shadow="0">
            <root>
                <mxCell id="0"/>
                <mxCell id="1" parent="0"/>
                <mxCell id="91" value="Call Hierarchy" style="swimlane;fontSize=12;fontColor=#DADADA;" vertex="1" parent="1">
                    <mxGeometry x="-832" y="28" width="810" height="300" as="geometry"/>
                </mxCell>
                <mxCell id="98" style="edgeStyle=elbowEdgeStyle;html=1;fontSize=12;fontColor=#DADADA;" edge="1" parent="91" source="92" target="94">
                    <mxGeometry relative="1" as="geometry"/>
                </mxCell>
                <mxCell id="99" style="edgeStyle=elbowEdgeStyle;html=1;fontSize=12;fontColor=#DADADA;" edge="1" parent="91" source="92" target="97">
                    <mxGeometry relative="1" as="geometry"/>
                </mxCell>
                <mxCell id="92" value="main.c" style="rounded=1;whiteSpace=wrap;html=1;fontSize=12;fontColor=#DADADA;" vertex="1" parent="91">
                    <mxGeometry x="40" y="150" width="70" height="30" as="geometry"/>
                </mxCell>
                <mxCell id="93" value="\cfg" style="swimlane;whiteSpace=wrap;html=1;fontSize=12;fontColor=#DADADA;" vertex="1" parent="91">
                    <mxGeometry x="150" y="60" width="120" height="200" as="geometry">
                        <mxRectangle x="160" y="50" width="60" height="30" as="alternateBounds"/>
                    </mxGeometry>
                </mxCell>
                <mxCell id="94" value="compileCfg.h" style="rounded=1;whiteSpace=wrap;html=1;fontSize=12;fontColor=#DADADA;" vertex="1" parent="93">
                    <mxGeometry x="15" y="40" width="90" height="30" as="geometry"/>
                </mxCell>
                <mxCell id="97" value="&lt;span style=&quot;font-family: Consolas, &amp;quot;Courier New&amp;quot;, monospace; background-color: rgb(30, 30, 30);&quot;&gt;methodCfg.h&lt;/span&gt;" style="rounded=1;whiteSpace=wrap;html=1;fontSize=12;fontColor=#DADADA;" vertex="1" parent="93">
                    <mxGeometry x="15" y="150" width="90" height="30" as="geometry"/>
                </mxCell>
                <mxCell id="100" value="00_Basics\01_Common_Func\inc" style="swimlane;whiteSpace=wrap;html=1;fontSize=12;fontColor=#DADADA;" vertex="1" parent="91">
                    <mxGeometry x="290" y="60" width="230" height="90" as="geometry">
                        <mxRectangle x="310" y="50" width="230" height="30" as="alternateBounds"/>
                    </mxGeometry>
                </mxCell>
                <mxCell id="101" value="commonXXX.h" style="rounded=1;whiteSpace=wrap;html=1;fontSize=12;fontColor=#DADADA;" vertex="1" parent="100">
                    <mxGeometry x="65" y="40" width="105" height="30" as="geometry"/>
                </mxCell>
                <mxCell id="103" style="edgeStyle=elbowEdgeStyle;html=1;entryX=0;entryY=0.5;entryDx=0;entryDy=0;fontSize=12;fontColor=#DADADA;" edge="1" parent="91" source="94" target="101">
                    <mxGeometry relative="1" as="geometry"/>
                </mxCell>
                <mxCell id="104" value="\inc" style="swimlane;whiteSpace=wrap;html=1;fontSize=12;fontColor=#DADADA;" vertex="1" parent="91">
                    <mxGeometry x="290" y="170" width="150" height="90" as="geometry">
                        <mxRectangle x="160" y="50" width="60" height="30" as="alternateBounds"/>
                    </mxGeometry>
                </mxCell>
                <mxCell id="105" value="&lt;span style=&quot;font-family: Consolas, &amp;quot;Courier New&amp;quot;, monospace; background-color: rgb(30, 30, 30);&quot;&gt;solutionName.h&lt;/span&gt;" style="rounded=1;whiteSpace=wrap;html=1;fontSize=12;fontColor=#DADADA;" vertex="1" parent="104">
                    <mxGeometry x="15" y="40" width="115" height="30" as="geometry"/>
                </mxCell>
                <mxCell id="107" style="edgeStyle=elbowEdgeStyle;html=1;entryX=0;entryY=0.5;entryDx=0;entryDy=0;fontSize=12;fontColor=#DADADA;" edge="1" parent="91" source="97" target="105">
                    <mxGeometry relative="1" as="geometry"/>
                </mxCell>
                <mxCell id="108" value="\src" style="swimlane;whiteSpace=wrap;html=1;fontSize=12;fontColor=#DADADA;" vertex="1" parent="91">
                    <mxGeometry x="460" y="170" width="260" height="90" as="geometry">
                        <mxRectangle x="160" y="50" width="60" height="30" as="alternateBounds"/>
                    </mxGeometry>
                </mxCell>
                <mxCell id="109" value="&lt;span style=&quot;font-family: Consolas, &amp;quot;Courier New&amp;quot;, monospace; font-size: 14px; background-color: rgb(30, 30, 30);&quot;&gt;solutionName_methodNameXX.c&lt;/span&gt;" style="rounded=1;whiteSpace=wrap;html=1;fontSize=12;fontColor=#DADADA;" vertex="1" parent="108">
                    <mxGeometry x="15" y="40" width="225" height="30" as="geometry"/>
                </mxCell>
                <mxCell id="110" style="edgeStyle=elbowEdgeStyle;html=1;entryX=0;entryY=0.5;entryDx=0;entryDy=0;fontSize=12;fontColor=#DADADA;" edge="1" parent="91" source="105" target="109">
                    <mxGeometry relative="1" as="geometry"/>
                </mxCell>
                <mxCell id="111" value="00_Basics\01_Common_Func\src" style="swimlane;whiteSpace=wrap;html=1;fontSize=12;fontColor=#DADADA;" vertex="1" parent="91">
                    <mxGeometry x="540" y="60" width="230" height="90" as="geometry">
                        <mxRectangle x="540" y="60" width="230" height="30" as="alternateBounds"/>
                    </mxGeometry>
                </mxCell>
                <mxCell id="112" value="commonXXX.c" style="rounded=1;whiteSpace=wrap;html=1;fontSize=12;fontColor=#DADADA;" vertex="1" parent="111">
                    <mxGeometry x="65" y="40" width="105" height="30" as="geometry"/>
                </mxCell>
                <mxCell id="113" style="edgeStyle=elbowEdgeStyle;html=1;fontSize=12;fontColor=#DADADA;" edge="1" parent="91" source="101" target="112">
                    <mxGeometry relative="1" as="geometry"/>
                </mxCell>
            </root>
        </mxGraphModel>
    </diagram>
</mxfile>